<?xml version="1.0" standalone="no"?>
<!DOCTYPE svg PUBLIC "-//W3C//DTD SVG 20010904//EN"
 "http://www.w3.org/TR/2001/REC-SVG-20010904/DTD/svg10.dtd">
<svg version="1.0" xmlns="http://www.w3.org/2000/svg"
 width="1280.000000pt" height="640.000000pt" viewBox="0 0 1280.000000 640.000000"
 preserveAspectRatio="xMidYMid meet">
<metadata>
Created by potrace 1.15, written by Peter Selinger 2001-2017
</metadata>
<g transform="translate(0.000000,640.000000) scale(0.100000,-0.100000)"
fill="#000000" stroke="none">
<path d="M3583 6153 c-44 -34 -632 -506 -2778 -2233 -845 -681 -824 -662 -794
-726 20 -41 3601 -2972 3637 -2976 33 -5 78 16 92 41 6 13 10 256 10 710 l0
691 2650 0 2650 0 0 -695 0 -696 25 -24 c17 -18 35 -25 64 -25 37 0 122 68
1838 1473 1100 901 1803 1484 1812 1501 30 64 51 45 -794 726 -2415 1943
-2788 2243 -2813 2257 -40 23 -93 11 -115 -26 -16 -27 -17 -86 -17 -720 l0
-691 -2650 0 -2650 0 0 690 c0 587 -2 695 -15 719 -28 54 -84 56 -152 4z"/>
</g>
</svg>
